<?xml version="1.0" encoding="UTF-8"?><svg id="_レイヤー_1" xmlns="http://www.w3.org/2000/svg" xmlns:xlink="http://www.w3.org/1999/xlink" viewBox="0 0 20.75 20.75"><defs><linearGradient id="_名称未設定グラデーション_184" x1="3.54" y1="17.04" x2="16.87" y2="17.04" gradientUnits="userSpaceOnUse"><stop offset="0" stop-color="#ff7b0e"/><stop offset=".18" stop-color="#ff943c"/><stop offset=".58" stop-color="#ffcda4"/><stop offset=".87" stop-color="#fff1e5"/><stop offset="1" stop-color="#fff"/></linearGradient><linearGradient id="_名称未設定グラデーション_184-2" x1="3.91" y1="13.71" x2="16.49" y2="13.71" xlink:href="#_名称未設定グラデーション_184"/><linearGradient id="_名称未設定グラデーション_184-3" x1="1.87" y1="15.04" x2="18.54" y2="15.04" xlink:href="#_名称未設定グラデーション_184"/><linearGradient id="_名称未設定グラデーション_184-4" x1="2.87" y1="12.37" x2="17.54" y2="12.37" xlink:href="#_名称未設定グラデーション_184"/><linearGradient id="_名称未設定グラデーション_184-5" x1=".87" y1="7.05" x2="19.88" y2="7.05" xlink:href="#_名称未設定グラデーション_184"/></defs><g><path d="M16.87,16.7s-1,1.67-6.67,1.67-6.66-1.67-6.66-1.67l.16-1h13.01l.16,1Z" style="fill:url(#_名称未設定グラデーション_184); stroke:#000; stroke-miterlimit:10; stroke-width:.28px;"/><path d="M3.91,14.38c.67-.81,.35-1.01,.22-1.33h12.15c-.24,.35-.26,.77,.21,1.33H3.91Z" style="fill:url(#_名称未設定グラデーション_184-2); stroke:#000; stroke-miterlimit:10; stroke-width:.28px;"/><circle cx="8.37" cy="4.88" r=".5" style="fill:none; stroke:#000; stroke-miterlimit:10; stroke-width:.28px;"/><circle cx="12.37" cy="4.88" r=".5" style="fill:none; stroke:#000; stroke-miterlimit:10; stroke-width:.28px;"/><path d="M18.54,15.04c0,.36-.3,.66-.67,.66H2.54c-.37,0-.67-.3-.67-.66s.3-.67,.67-.67h15.33c.37,0,.67,.3,.67,.67Z" style="fill:url(#_名称未設定グラデーション_184-3); stroke:#000; stroke-miterlimit:10; stroke-width:.28px;"/><path d="M17.54,12.38c0,.37-.3,.67-.67,.67H3.54c-.37,0-.67-.3-.67-.67s.3-.67,.67-.67h13.33c.37,0,.67,.3,.67,.67Z" style="fill:url(#_名称未設定グラデーション_184-4); stroke:#000; stroke-miterlimit:10; stroke-width:.28px;"/><path d="M4.71,9.81s-.04-.01-.06-.01" style="fill:none; stroke:#000; stroke-miterlimit:10; stroke-width:.28px;"/><path d="M19.58,4.38c-2.04-3-1.88,0-1.88,0,2.61,3-2.21,3.75-2.21,3.75v.14s-.29-1.89-.29-1.89c0,0-.66-4-4.66-4S5.2,6.38,5.2,6.38l-.28,1.77s-6.31-.44-3.18,3.4c0,0,1.6,.83,.82-1.17,0,0-.33-1.12,2.09-.58l-.31,1.91h11.72l-.31-1.91c5.7-.61,3.83-5.42,3.83-5.42Zm-9.21,5c-.28,0-1.5-.72-1.5-1s1.22,0,1.5,0,1.5-.28,1.5,0-1.22,1-1.5,1Z" style="fill:url(#_名称未設定グラデーション_184-5); stroke:#000; stroke-miterlimit:10; stroke-width:.28px;"/><circle cx="8.37" cy="4.88" r=".5" style="fill:#fff; stroke:#000; stroke-miterlimit:10; stroke-width:.28px;"/><circle cx="12.37" cy="4.88" r=".5" style="fill:#fff; stroke:#000; stroke-miterlimit:10; stroke-width:.28px;"/><path d="M10.87,5.38c0,.36-.03,.71-.07,1-.08,.6-.24,1-.43,1s-.35-.4-.43-1c-.04-.29-.07-.64-.07-1,0-1.1,.22-2,.5-2s.5,.9,.5,2Z" style="fill:none; stroke:#000; stroke-miterlimit:10; stroke-width:.28px;"/></g><rect width="20.75" height="20.75" style="fill:none;"/></svg>